{
  "accessors": [
    {
      "bufferView": 2,
      "componentType": 5126,
      "count": 14046,
      "max": [
        246.92613220214844,
        32.75726318359375,
        7.611757755279541
      ],
      "min": [
        -48.22027587890625,
        -3.1172738075256348,
        -2.0606234073638916
      ],
      "type": "VEC3"
    },
    {
      "bufferView": 2,
      "byteOffset": 168552,
      "componentType": 5126,
      "count": 14046,
      "max": [
        1.0,
        1.0,
        1.0
      ],
      "min": [
        -1.0,
        -1.0,
        -0.7071084976196289
      ],
      "type": "VEC3"
    },
    {
      "bufferView": 3,
      "componentType": 5126,
      "count": 14046,
      "max": [
        1.0,
        1.0,
        1.0,
        1.0
      ],
      "min": [
        -1.0,
        -1.0,
        -1.0,
        1.0
      ],
      "type": "VEC4"
    },
    {
      "bufferView": 1,
      "componentType": 5126,
      "count": 14046,
      "max": [
        0.999500036239624,
        0.9890369772911072
      ],
      "min": [
        0.0005000000237487257,
        0.0005000000237487257
      ],
      "type": "VEC2"
    },
    {
      "bufferView": 1,
      "byteOffset": 112368,
      "componentType": 5126,
      "count": 14046,
      "max": [
        0.999500036239624,
        0.9890369772911072
      ],
      "min": [
        0.0005000000237487257,
        0.0005000000237487257
      ],
      "type": "VEC2"
    },
    {
      "bufferView": 0,
      "componentType": 5125,
      "count": 53118,
      "type": "SCALAR"
    },
    {
      "bufferView": 2,
      "byteOffset": 337104,
      "componentType": 5126,
      "count": 2978,
      "max": [
        141.74639892578125,
        33.79558181762695,
        31.55406379699707
      ],
      "min": [
        0.5654294490814209,
        -5.6470208168029785,
        -70.58888244628906
      ],
      "type": "VEC3"
    },
    {
      "bufferView": 2,
      "byteOffset": 372840,
      "componentType": 5126,
      "count": 2978,
      "max": [
        1.0,
        1.0,
        1.0
      ],
      "min": [
        -1.0,
        -1.0,
        -1.0
      ],
      "type": "VEC3"
    },
    {
      "bufferView": 3,
      "byteOffset": 224736,
      "componentType": 5126,
      "count": 2978,
      "max": [
        1.0,
        0.9984329342842102,
        0.9971157312393188,
        1.0
      ],
      "min": [
        -1.0,
        -1.0,
        -1.0,
        1.0
      ],
      "type": "VEC4"
    },
    {
      "bufferView": 1,
      "byteOffset": 224736,
      "componentType": 5126,
      "count": 2978,
      "max": [
        0.999500036239624,
        0.810443103313446
      ],
      "min": [
        0.0005000000237487257,
        0.0005000000237487257
      ],
      "type": "VEC2"
    },
    {
      "bufferView": 1,
      "byteOffset": 248560,
      "componentType": 5126,
      "count": 2978,
      "max": [
        0.999500036239624,
        0.810443103313446
      ],
      "min": [
        0.0005000000237487257,
        0.0005000000237487257
      ],
      "type": "VEC2"
    },
    {
      "bufferView": 0,
      "byteOffset": 212472,
      "componentType": 5125,
      "count": 12300,
      "type": "SCALAR"
    },
    {
      "bufferView": 2,
      "byteOffset": 408576,
      "componentType": 5126,
      "count": 2244,
      "max": [
        73.06015014648438,
        67.5826416015625,
        192.22262573242188
      ],
      "min": [
        -73.0601806640625,
        14.870328903198242,
        86.39968872070313
      ],
      "type": "VEC3"
    },
    {
      "bufferView": 2,
      "byteOffset": 435504,
      "componentType": 5126,
      "count": 2244,
      "max": [
        1.0,
        1.0,
        1.0
      ],
      "min": [
        -1.0,
        -1.0,
        -1.0
      ],
      "type": "VEC3"
    },
    {
      "bufferView": 3,
      "byteOffset": 272384,
      "componentType": 5126,
      "count": 2244,
      "max": [
        1.0,
        1.0,
        1.0,
        1.0
      ],
      "min": [
        -1.0,
        -1.0,
        -1.0,
        1.0
      ],
      "type": "VEC4"
    },
    {
      "bufferView": 1,
      "byteOffset": 272384,
      "componentType": 5126,
      "count": 2244,
      "max": [
        0.995195209980011,
        0.999500036239624
      ],
      "min": [
        0.0005000000237487257,
        0.0005000000237487257
      ],
      "type": "VEC2"
    },
    {
      "bufferView": 1,
      "byteOffset": 290336,
      "componentType": 5126,
      "count": 2244,
      "max": [
        0.995195209980011,
        0.999500036239624
      ],
      "min": [
        0.0005000000237487257,
        0.0005000000237487257
      ],
      "type": "VEC2"
    },
    {
      "bufferView": 0,
      "byteOffset": 261672,
      "componentType": 5125,
      "count": 8358,
      "type": "SCALAR"
    },
    {
      "bufferView": 2,
      "byteOffset": 462432,
      "componentType": 5126,
      "count": 4225,
      "max": [
        146.0001220703125,
        27.31121826171875,
        107.82292938232422
      ],
      "min": [
        -1.0001226663589478,
        -27.543441772460938,
        0.5695521831512451
      ],
      "type": "VEC3"
    },
    {
      "bufferView": 2,
      "byteOffset": 513132,
      "componentType": 5126,
      "count": 4225,
      "max": [
        1.0,
        1.0,
        1.0
      ],
      "min": [
        -1.0,
        -1.0,
        -1.0
      ],
      "type": "VEC3"
    },
    {
      "bufferView": 3,
      "byteOffset": 308288,
      "componentType": 5126,
      "count": 4225,
      "max": [
        1.0,
        1.0,
        1.0,
        1.0
      ],
      "min": [
        -1.0,
        -1.0,
        -1.0,
        1.0
      ],
      "type": "VEC4"
    },
    {
      "bufferView": 1,
      "byteOffset": 308288,
      "componentType": 5126,
      "count": 4225,
      "max": [
        0.999500036239624,
        0.9960224032402039
      ],
      "min": [
        0.0005000000237487257,
        0.0005000000237487257
      ],
      "type": "VEC2"
    },
    {
      "bufferView": 1,
      "byteOffset": 342088,
      "componentType": 5126,
      "count": 4225,
      "max": [
        0.999500036239624,
        0.9960224032402039
      ],
      "min": [
        0.0005000000237487257,
        0.0005000000237487257
      ],
      "type": "VEC2"
    },
    {
      "bufferView": 0,
      "byteOffset": 295104,
      "componentType": 5125,
      "count": 17742,
      "type": "SCALAR"
    }
  ],
  "asset": {
    "extras": {
      "author": "tuapiasat (https://sketchfab.com/tuapiasat)",
      "license": "CC-BY-4.0 (http://creativecommons.org/licenses/by/4.0/)",
      "source": "https://sketchfab.com/3d-models/yamaha-m1a-piano-1d8b0c38e226412a8cdefe0f016895e5",
      "title": "Yamaha M1A Piano"
    },
    "generator": "Sketchfab-17.14.0",
    "version": "2.0"
  },
  "bufferViews": [
    {
      "buffer": 0,
      "byteLength": 366072,
      "name": "floatBufferViews",
      "target": 34963
    },
    {
      "buffer": 0,
      "byteLength": 375888,
      "byteOffset": 366072,
      "byteStride": 8,
      "name": "floatBufferViews",
      "target": 34962
    },
    {
      "buffer": 0,
      "byteLength": 563832,
      "byteOffset": 741960,
      "byteStride": 12,
      "name": "floatBufferViews",
      "target": 34962
    },
    {
      "buffer": 0,
      "byteLength": 375888,
      "byteOffset": 1305792,
      "byteStride": 16,
      "name": "floatBufferViews",
      "target": 34962
    }
  ],
  "buffers": [
    {
      "byteLength": 1681680,
      "uri": "scene.bin"
    }
  ],
  "images": [
    {
      "uri": "textures/material_baseColor.png"
    },
    {
      "uri": "textures/material_metallicRoughness.png"
    },
    {
      "uri": "textures/material_normal.png"
    },
    {
      "uri": "textures/Lid_And_Metal_baseColor.png"
    },
    {
      "uri": "textures/Lid_And_Metal_metallicRoughness.png"
    },
    {
      "uri": "textures/Lid_And_Metal_normal.png"
    },
    {
      "uri": "textures/Wood_baseColor.png"
    },
    {
      "uri": "textures/Wood_metallicRoughness.png"
    },
    {
      "uri": "textures/Wood_normal.png"
    },
    {
      "uri": "textures/material_3_baseColor.png"
    },
    {
      "uri": "textures/material_3_metallicRoughness.png"
    },
    {
      "uri": "textures/material_3_normal.png"
    }
  ],
  "materials": [
    {
      "doubleSided": true,
      "name": "material",
      "normalTexture": {
        "index": 2
      },
      "pbrMetallicRoughness": {
        "baseColorTexture": {
          "index": 0
        },
        "metallicFactor": 0.0,
        "metallicRoughnessTexture": {
          "index": 1
        }
      }
    },
    {
      "doubleSided": true,
      "name": "Lid_And_Metal",
      "normalTexture": {
        "index": 5
      },
      "pbrMetallicRoughness": {
        "baseColorTexture": {
          "index": 3
        },
        "metallicRoughnessTexture": {
          "index": 4
        }
      }
    },
    {
      "doubleSided": true,
      "name": "Wood",
      "normalTexture": {
        "index": 8
      },
      "pbrMetallicRoughness": {
        "baseColorTexture": {
          "index": 6
        },
        "metallicRoughnessTexture": {
          "index": 7
        }
      }
    },
    {
      "doubleSided": true,
      "name": "material_3",
      "normalTexture": {
        "index": 11,
        "scale": 0.17523862929867975
      },
      "pbrMetallicRoughness": {
        "baseColorTexture": {
          "index": 9
        },
        "metallicRoughnessTexture": {
          "index": 10
        },
        "roughnessFactor": 0.4007631261352415
      }
    }
  ],
  "meshes": [
    {
      "name": "Key_Key_0",
      "primitives": [
        {
          "attributes": {
            "NORMAL": 1,
            "POSITION": 0,
            "TANGENT": 2,
            "TEXCOORD_0": 3,
            "TEXCOORD_1": 4
          },
          "indices": 5,
          "material": 0,
          "mode": 4
        }
      ]
    },
    {
      "name": "Lid And Metal_Lid And Metal_0",
      "primitives": [
        {
          "attributes": {
            "NORMAL": 7,
            "POSITION": 6,
            "TANGENT": 8,
            "TEXCOORD_0": 9,
            "TEXCOORD_1": 10
          },
          "indices": 11,
          "material": 1,
          "mode": 4
        }
      ]
    },
    {
      "name": "Wood_Wood_0",
      "primitives": [
        {
          "attributes": {
            "NORMAL": 13,
            "POSITION": 12,
            "TANGENT": 14,
            "TEXCOORD_0": 15,
            "TEXCOORD_1": 16
          },
          "indices": 17,
          "material": 2,
          "mode": 4
        }
      ]
    },
    {
      "name": "PE_PE_0",
      "primitives": [
        {
          "attributes": {
            "NORMAL": 19,
            "POSITION": 18,
            "TANGENT": 20,
            "TEXCOORD_0": 21,
            "TEXCOORD_1": 22
          },
          "indices": 23,
          "material": 3,
          "mode": 4
        }
      ]
    }
  ],
  "nodes": [
    {
      "children": [
        1
      ],
      "matrix": [
        1.0,
        0.0,
        0.0,
        0.0,
        0.0,
        2.220446049250313e-16,
        -1.0,
        0.0,
        0.0,
        1.0,
        2.220446049250313e-16,
        0.0,
        0.0,
        0.0,
        0.0,
        1.0
      ],
      "name": "Sketchfab_model"
    },
    {
      "children": [
        2
      ],
      "matrix": [
        0.009999999776482582,
        0.0,
        0.0,
        0.0,
        0.0,
        0.0,
        0.009999999776482582,
        0.0,
        0.0,
        -0.009999999776482582,
        0.0,
        0.0,
        0.0,
        0.0,
        0.0,
        1.0
      ],
      "name": "9321c0b7801e4f08965d7f31fdc05a82.fbx"
    },
    {
      "children": [
        3,
        6,
        9,
        12
      ],
      "name": "RootNode"
    },
    {
      "children": [
        4
      ],
      "matrix": [
        0.42813900113105774,
        0.0,
        0.0,
        0.0,
        0.0,
        -0.0053835805393946615,
        -0.42810515221155154,
        0.0,
        0.0,
        0.42810515221155154,
        -0.0053835805393946615,
        0.0,
        0.0,
        68.97669982910156,
        8.03746509552002,
        1.0
      ],
      "name": "Key"
    },
    {
      "children": [
        5
      ],
      "matrix": [
        1.0,
        0.0,
        -0.0,
        0.0,
        0.0,
        1.0,
        0.0,
        0.0,
        0.0,
        0.0,
        1.0,
        0.0,
        -96.05194091796875,
        -32.75726318359375,
        -4.933363437652588,
        1.0
      ],
      "name": "Object_4"
    },
    {
      "mesh": 0,
      "name": "Key_Key_0"
    },
    {
      "children": [
        7
      ],
      "matrix": [
        1.0,
        0.0,
        0.0,
        0.0,
        0.0,
        2.220446049250313e-16,
        -1.0,
        0.0,
        0.0,
        1.0,
        2.220446049250313e-16,
        0.0,
        0.0,
        0.0,
        0.0,
        1.0
      ],
      "name": "Lid And Metal"
    },
    {
      "children": [
        8
      ],
      "matrix": [
        1.0,
        0.0,
        -0.0,
        0.0,
        0.0,
        1.0,
        0.0,
        0.0,
        0.0,
        0.0,
        1.0,
        0.0,
        -72.5,
        -7.45534610748291,
        74.70343780517578,
        1.0
      ],
      "name": "Object_7"
    },
    {
      "mesh": 1,
      "name": "Lid And Metal_Lid And Metal_0"
    },
    {
      "children": [
        10
      ],
      "matrix": [
        1.0,
        0.0,
        0.0,
        0.0,
        0.0,
        2.220446049250313e-16,
        -1.0,
        0.0,
        0.0,
        1.0,
        2.220446049250313e-16,
        0.0,
        0.0,
        0.0,
        0.0,
        1.0
      ],
      "name": "Wood"
    },
    {
      "children": [
        11
      ],
      "matrix": [
        1.0,
        0.0,
        -0.0,
        0.0,
        0.0,
        1.0,
        0.0,
        0.0,
        0.0,
        0.0,
        1.0,
        0.0,
        0.0,
        -40.155311584472656,
        -86.39968872070313,
        1.0
      ],
      "name": "Object_10"
    },
    {
      "mesh": 2,
      "name": "Wood_Wood_0"
    },
    {
      "children": [
        13
      ],
      "matrix": [
        1.0,
        0.0,
        0.0,
        0.0,
        0.0,
        2.220446049250313e-16,
        -1.0,
        0.0,
        0.0,
        1.0,
        2.220446049250313e-16,
        0.0,
        0.0,
        0.0,
        0.0,
        1.0
      ],
      "name": "PE"
    },
    {
      "children": [
        14
      ],
      "matrix": [
        1.0,
        0.0,
        -0.0,
        0.0,
        0.0,
        1.0,
        0.0,
        0.0,
        0.0,
        0.0,
        1.0,
        0.0,
        -72.5,
        0.11611175537109375,
        0.0,
        1.0
      ],
      "name": "Object_13"
    },
    {
      "mesh": 3,
      "name": "PE_PE_0"
    }
  ],
  "samplers": [
    {
      "magFilter": 9729,
      "minFilter": 9987,
      "wrapS": 10497,
      "wrapT": 10497
    }
  ],
  "scene": 0,
  "scenes": [
    {
      "name": "Sketchfab_Scene",
      "nodes": [
        0
      ]
    }
  ],
  "textures": [
    {
      "sampler": 0,
      "source": 0
    },
    {
      "sampler": 0,
      "source": 1
    },
    {
      "sampler": 0,
      "source": 2
    },
    {
      "sampler": 0,
      "source": 3
    },
    {
      "sampler": 0,
      "source": 4
    },
    {
      "sampler": 0,
      "source": 5
    },
    {
      "sampler": 0,
      "source": 6
    },
    {
      "sampler": 0,
      "source": 7
    },
    {
      "sampler": 0,
      "source": 8
    },
    {
      "sampler": 0,
      "source": 9
    },
    {
      "sampler": 0,
      "source": 10
    },
    {
      "sampler": 0,
      "source": 11
    }
  ]
}
