{
  "accessors": [
    {
      "bufferView": 1,
      "componentType": 5126,
      "count": 11068,
      "max": [
        1.3108958005905151,
        4.377751350402832,
        0.5698249340057373
      ],
      "min": [
        -1.2868059873580933,
        -3.3722498416900635,
        -1.5012378692626953
      ],
      "type": "VEC3"
    },
    {
      "bufferView": 1,
      "byteOffset": 132816,
      "componentType": 5126,
      "count": 11068,
      "max": [
        1.0,
        1.0,
        1.0
      ],
      "min": [
        -1.0,
        -1.0,
        -1.0
      ],
      "type": "VEC3"
    },
    {
      "bufferView": 0,
      "componentType": 5125,
      "count": 57282,
      "type": "SCALAR"
    },
    {
      "bufferView": 1,
      "byteOffset": 265632,
      "componentType": 5126,
      "count": 1056,
      "max": [
        -0.38586878776550293,
        -0.06179870292544365,
        -0.0536983460187912
      ],
      "min": [
        -0.5851975679397583,
        -1.1638896465301514,
        -0.34541046619415283
      ],
      "type": "VEC3"
    },
    {
      "bufferView": 1,
      "byteOffset": 278304,
      "componentType": 5126,
      "count": 1056,
      "max": [
        1.0,
        1.0,
        1.0
      ],
      "min": [
        -1.0,
        -1.0,
        -1.0
      ],
      "type": "VEC3"
    },
    {
      "bufferView": 0,
      "byteOffset": 229128,
      "componentType": 5125,
      "count": 1998,
      "type": "SCALAR"
    },
    {
      "bufferView": 1,
      "byteOffset": 290976,
      "componentType": 5126,
      "count": 9136,
      "max": [
        1.455102562904358,
        2.715851068496704,
        0.25646722316741943
      ],
      "min": [
        -0.8984509110450745,
        -4.554659366607666,
        -0.3777395784854889
      ],
      "type": "VEC3"
    },
    {
      "bufferView": 1,
      "byteOffset": 400608,
      "componentType": 5126,
      "count": 9136,
      "max": [
        1.0,
        1.0,
        1.0
      ],
      "min": [
        -1.0,
        -1.0,
        -1.0
      ],
      "type": "VEC3"
    },
    {
      "bufferView": 0,
      "byteOffset": 237120,
      "componentType": 5125,
      "count": 39306,
      "type": "SCALAR"
    },
    {
      "bufferView": 1,
      "byteOffset": 510240,
      "componentType": 5126,
      "count": 384,
      "max": [
        -0.8833322525024414,
        -0.10166271775960922,
        -0.09356237947940826
      ],
      "min": [
        -0.9126243591308594,
        -1.1240254640579224,
        -0.30554696917533875
      ],
      "type": "VEC3"
    },
    {
      "bufferView": 1,
      "byteOffset": 514848,
      "componentType": 5126,
      "count": 384,
      "max": [
        0.6857035160064697,
        0.8812479972839355,
        0.8812479972839355
      ],
      "min": [
        -0.9566988348960876,
        -0.8812479972839355,
        -0.8812479972839355
      ],
      "type": "VEC3"
    },
    {
      "bufferView": 0,
      "byteOffset": 394344,
      "componentType": 5125,
      "count": 1962,
      "type": "SCALAR"
    }
  ],
  "asset": {
    "extras": {
      "author": "Janice Emmons 1990-present (https://sketchfab.com/JaniceEmmons1990)",
      "license": "CC-BY-4.0 (http://creativecommons.org/licenses/by/4.0/)",
      "source": "https://sketchfab.com/3d-models/trumpet-be92edf0f81b4c8ea27ef110b4eaa04f",
      "title": "Trumpet"
    },
    "generator": "Sketchfab-12.66.0",
    "version": "2.0"
  },
  "bufferViews": [
    {
      "buffer": 0,
      "byteLength": 402192,
      "name": "floatBufferViews",
      "target": 34963
    },
    {
      "buffer": 0,
      "byteLength": 519456,
      "byteOffset": 402192,
      "byteStride": 12,
      "name": "floatBufferViews",
      "target": 34962
    }
  ],
  "buffers": [
    {
      "byteLength": 921648,
      "uri": "scene.bin"
    }
  ],
  "materials": [
    {
      "doubleSided": true,
      "name": "Gold",
      "pbrMetallicRoughness": {
        "baseColorFactor": [
          1.0,
          0.6945674456656341,
          0.10286909763063108,
          1.0
        ]
      }
    },
    {
      "doubleSided": true,
      "name": "Black",
      "pbrMetallicRoughness": {
        "baseColorFactor": [
          0.8,
          0.8,
          0.8,
          1.0
        ],
        "metallicFactor": 0.0,
        "roughnessFactor": 0.5
      }
    },
    {
      "doubleSided": true,
      "name": "Silver",
      "pbrMetallicRoughness": {
        "baseColorFactor": [
          0.40395232919355684,
          0.40395232919355684,
          0.40395232919355684,
          1.0
        ]
      }
    },
    {
      "doubleSided": true,
      "name": "White",
      "pbrMetallicRoughness": {
        "baseColorFactor": [
          0.8,
          0.8,
          0.8,
          1.0
        ],
        "metallicFactor": 0.0,
        "roughnessFactor": 0.5
      }
    }
  ],
  "meshes": [
    {
      "name": "mesh_0",
      "primitives": [
        {
          "attributes": {
            "NORMAL": 1,
            "POSITION": 0
          },
          "indices": 2,
          "material": 0,
          "mode": 4
        }
      ]
    },
    {
      "name": "mesh_0",
      "primitives": [
        {
          "attributes": {
            "NORMAL": 4,
            "POSITION": 3
          },
          "indices": 5,
          "material": 1,
          "mode": 4
        }
      ]
    },
    {
      "name": "mesh_0",
      "primitives": [
        {
          "attributes": {
            "NORMAL": 7,
            "POSITION": 6
          },
          "indices": 8,
          "material": 2,
          "mode": 4
        }
      ]
    },
    {
      "name": "mesh_0",
      "primitives": [
        {
          "attributes": {
            "NORMAL": 10,
            "POSITION": 9
          },
          "indices": 11,
          "material": 3,
          "mode": 4
        }
      ]
    }
  ],
  "nodes": [
    {
      "children": [
        1
      ],
      "matrix": [
        1.0,
        0.0,
        0.0,
        0.0,
        0.0,
        2.220446049250313e-16,
        -1.0,
        0.0,
        0.0,
        1.0,
        2.220446049250313e-16,
        0.0,
        0.0,
        0.0,
        0.0,
        1.0
      ],
      "name": "Sketchfab_model"
    },
    {
      "children": [
        2
      ],
      "name": "root"
    },
    {
      "children": [
        3
      ],
      "matrix": [
        1.0,
        0.0,
        0.0,
        0.0,
        0.0,
        2.220446049250313e-16,
        1.0,
        0.0,
        0.0,
        -1.0,
        2.220446049250313e-16,
        0.0,
        0.0,
        0.0,
        0.0,
        1.0
      ],
      "name": "GLTF_SceneRootNode"
    },
    {
      "children": [
        4,
        5,
        6,
        7
      ],
      "matrix": [
        2.220446049250313e-15,
        -0.9999999999999978,
        -6.556709183994579e-08,
        0.0,
        -0.9999999999999978,
        2.220446049250313e-15,
        -6.556709183994579e-08,
        0.0,
        6.556709183994579e-08,
        6.556709183994579e-08,
        -0.9999999999999956,
        0.0,
        0.0,
        0.0,
        0.0,
        1.0
      ],
      "name": "Cylinder_6"
    },
    {
      "mesh": 0,
      "name": "mesh_0"
    },
    {
      "mesh": 1,
      "name": "mesh_0"
    },
    {
      "mesh": 2,
      "name": "mesh_0"
    },
    {
      "mesh": 3,
      "name": "mesh_0"
    }
  ],
  "scene": 0,
  "scenes": [
    {
      "name": "Sketchfab_Scene",
      "nodes": [
        0
      ]
    }
  ]
}
