{
  "accessors": [
    {
      "bufferView": 2,
      "componentType": 5126,
      "count": 1887,
      "max": [
        2.4260053634643555,
        2.7279250621795654,
        2.928506374359131
      ],
      "min": [
        -2.427314043045044,
        -2.9910590648651123,
        -2.9250731468200684
      ],
      "type": "VEC3"
    },
    {
      "bufferView": 2,
      "byteOffset": 22644,
      "componentType": 5126,
      "count": 1887,
      "max": [
        0.9957117438316345,
        1.0,
        0.9957116842269897
      ],
      "min": [
        -0.9957117438316345,
        -1.0,
        -0.9957116842269897
      ],
      "type": "VEC3"
    },
    {
      "bufferView": 1,
      "componentType": 5126,
      "count": 1887,
      "max": [
        0.9541776180267334,
        0.9915127158164978
      ],
      "min": [
        0.003064320655539632,
        0.05148030444979668
      ],
      "type": "VEC2"
    },
    {
      "bufferView": 0,
      "componentType": 5125,
      "count": 5232,
      "type": "SCALAR"
    }
  ],
  "asset": {
    "extras": {
      "author": "taw7904 (https://sketchfab.com/taw7904)",
      "license": "CC-BY-4.0 (http://creativecommons.org/licenses/by/4.0/)",
      "source": "https://sketchfab.com/3d-models/timpani-drum-9cf701a0db76411294266c5a3665458b",
      "title": "Timpani Drum"
    },
    "generator": "Sketchfab-12.65.0",
    "version": "2.0"
  },
  "bufferViews": [
    {
      "buffer": 0,
      "byteLength": 20928,
      "name": "floatBufferViews",
      "target": 34963
    },
    {
      "buffer": 0,
      "byteLength": 15096,
      "byteOffset": 20928,
      "byteStride": 8,
      "name": "floatBufferViews",
      "target": 34962
    },
    {
      "buffer": 0,
      "byteLength": 45288,
      "byteOffset": 36024,
      "byteStride": 12,
      "name": "floatBufferViews",
      "target": 34962
    }
  ],
  "buffers": [
    {
      "byteLength": 81312,
      "uri": "scene.bin"
    }
  ],
  "images": [
    {
      "uri": "textures/M_Drum_baseColor.png"
    }
  ],
  "materials": [
    {
      "doubleSided": true,
      "name": "M_Drum",
      "pbrMetallicRoughness": {
        "baseColorTexture": {
          "index": 0
        },
        "metallicFactor": 0.43950122216682275,
        "roughnessFactor": 0.43280970680157116
      }
    }
  ],
  "meshes": [
    {
      "name": "SM_Drum_M_Drum_0",
      "primitives": [
        {
          "attributes": {
            "NORMAL": 1,
            "POSITION": 0,
            "TEXCOORD_0": 2
          },
          "indices": 3,
          "material": 0,
          "mode": 4
        }
      ]
    }
  ],
  "nodes": [
    {
      "children": [
        1
      ],
      "matrix": [
        1.0,
        0.0,
        0.0,
        0.0,
        0.0,
        2.220446049250313e-16,
        -1.0,
        0.0,
        0.0,
        1.0,
        2.220446049250313e-16,
        0.0,
        0.0,
        0.0,
        0.0,
        1.0
      ],
      "name": "Sketchfab_model"
    },
    {
      "children": [
        2
      ],
      "matrix": [
        1.0,
        0.0,
        0.0,
        0.0,
        0.0,
        0.0,
        1.0,
        0.0,
        0.0,
        -1.0,
        0.0,
        0.0,
        0.0,
        0.0,
        0.0,
        1.0
      ],
      "name": "a33a0dac39b0416595515cd77ba61c07.fbx"
    },
    {
      "children": [
        3
      ],
      "name": "RootNode"
    },
    {
      "children": [
        4
      ],
      "name": "SM_Drum"
    },
    {
      "mesh": 0,
      "name": "SM_Drum_M_Drum_0"
    }
  ],
  "samplers": [
    {
      "magFilter": 9729,
      "minFilter": 9987,
      "wrapS": 10497,
      "wrapT": 10497
    }
  ],
  "scene": 0,
  "scenes": [
    {
      "name": "Sketchfab_Scene",
      "nodes": [
        0
      ]
    }
  ],
  "textures": [
    {
      "sampler": 0,
      "source": 0
    }
  ]
}
